<?xml version="1.0" encoding="UTF-8"?>
<svg id="uuid-6463b243-6dd8-475c-9388-1313416b7f33" data-name="Capa 2" xmlns="http://www.w3.org/2000/svg" viewBox="0 0 1863.129 296.416">
  <g id="uuid-23b7485f-40be-4a65-b426-7630cac9bf24" data-name="Color 2 lineas">
    <g>
      <g>
        <path d="M655.978,17.288l-.342,33.894v11.641c-.228,14.493-.685,21.112-6.733,27.503-8.445,8.901-20.998,8.901-25.106,8.901-15.292,0-24.08-5.706-28.416-11.868-3.994-5.478-4.679-11.641-5.021-23.966v-8.444c-.114-17.803-.114-20.998-.57-37.317l.685-.685c7.76.113,10.385.113,20.085-.343l.571.685c-.229,11.298-.342,20.085-.342,29.329,0,6.049,0,12.097.228,18.146.229,7.189.913,11.184,2.625,14.15,2.511,3.994,6.961,6.049,11.64,6.049,3.766,0,7.532-1.256,10.042-4.108,3.082-3.652,3.424-9.13,3.424-21.112,0-14.037-.571-28.074-1.141-42.11l.685-.685c6.505.113,8.787.113,17.118-.343l.57.685Z" fill="#00629b"/>
        <path d="M724.563,97.4c-9.129,0-11.069.114-18.602.343l-.685-.685c0-3.88.114-7.874.114-11.755,0-4.336-.114-19.971-.343-23.736-.342-4.108-.913-10.842-7.189-10.842-3.652,0-6.391,1.94-8.787,3.538.114,20.427.228,24.878.913,42.452l-.685.685c-9.129,0-10.841,0-19.058.343l-.685-.685c.114-7.304.228-14.607.228-21.911,0-18.602-.685-25.791-1.598-35.72l.685-.799c8.559-1.142,10.499-1.483,19.286-3.31l1.141.799-.228,6.276c5.25-3.081,11.298-6.733,18.259-6.733,4.108,0,10.613.913,14.151,6.848,2.853,4.679,2.967,9.929,3.081,20.884v8.901c.229,11.185.229,14.38.799,24.422l-.799.685Z" fill="#00629b"/>
        <path d="M758.798,97.515c-9.244-.114-11.526,0-19.743.343l-.685-.799c.342-9.358.685-16.319.685-28.759,0-16.205-.342-20.199-1.255-28.872l.685-.685,19.629-3.424.799.913c-.114,9.7-.342,19.515-.342,29.215,0,15.748.457,22.481,1.027,31.269l-.799.799ZM757.201,25.162c-8.103,1.027-10.271,1.256-18.031,2.625l-.799-.685c.114-2.168.114-4.45.114-6.619,0-2.738-.114-5.135-.342-9.243l.685-.799,18.602-2.283.685.686-.342,15.52-.571.799Z" fill="#00629b"/>
        <path d="M803.647,97.515c-8.217-.114-11.184,0-18.602.343l-.799-.799c-2.511-9.358-3.766-13.58-18.944-58.544l.457-.913c8.673-.114,10.956-.229,19.971-1.255l.799.685c1.598,7.532,2.054,9.7,4.907,20.313l2.168,8.787,2.853,12.325,5.82-22.482c2.282-8.901,2.625-10.499,4.222-18.145l.799-.799,15.977-.343.57.799c-3.195,9.358-8.216,24.193-11.298,33.438-2.396,7.189-4.565,14.265-8.216,25.677l-.685.913Z" fill="#00629b"/>
        <path d="M881.933,80.968l-.799,12.896-.685.913c-6.048,2.396-10.157,4.108-19.629,4.108-8.216,0-23.737-1.37-30.356-16.776-1.826-3.994-2.739-9.586-2.739-14.949,0-19.743,11.869-31.498,29.785-31.498,2.625,0,5.25.229,8.103,1.027,3.88.913,12.667,3.652,16.662,17.118,1.598,5.706,1.712,11.412,1.826,17.004l-.685.799-36.861.685c.457,2.283.799,4.565,2.511,6.962,2.739,4.108,7.418,6.276,14.265,6.276,8.331,0,13.466-2.625,17.803-4.907l.799.343ZM865.614,59.741c0-2.625-.114-5.364-1.711-7.874-1.255-2.055-3.538-3.995-7.304-3.995-1.598,0-3.195.343-4.565,1.256-4.336,2.739-5.135,7.532-5.478,11.069l19.058-.456Z" fill="#00629b"/>
        <path d="M927.125,55.633c-1.598-.913-2.739-1.598-4.679-1.598-7.76,0-7.76,7.532-7.76,12.667,0,7.875.685,20.771,1.141,30.014l-.57.799c-9.13-.114-10.956,0-19.401.343l-.685-.685c.229-9.473.342-18.83.342-28.188,0-15.862-.342-20.998-1.027-29.557l.685-.685c8.331-1.256,10.499-1.598,18.944-3.424l.913.913-.342,10.499c3.652-8.445,8.901-11.07,13.581-11.07.799,0,1.598.114,2.396.114l.685.799-3.195,18.602-1.027.457Z" fill="#00629b"/>
        <path d="M968.095,60.197c6.276,2.396,15.064,5.706,15.064,18.26,0,.799,0,1.598-.114,2.511-2.055,16.319-19.173,17.917-27.846,17.917-8.331,0-13.124-1.826-18.716-3.881l-.57-1.026c.456-5.706.57-6.962.799-12.896l1.027-.457c1.711,1.369,2.624,2.168,4.564,3.195,4.223,2.168,8.901,3.195,12.097,3.195,6.391,0,9.016-3.081,9.016-5.934,0-4.108-5.021-5.82-8.103-6.848l-4.337-1.598c-5.363-2.055-14.835-5.706-14.835-17.917,0-4.564,1.598-7.988,3.081-10.043,5.934-8.559,17.118-9.016,22.71-9.016,7.418,0,12.097,1.37,17.46,2.854l.571.685-1.142,12.439-1.027.342c-2.853-1.825-7.304-4.793-14.265-4.793-7.076,0-7.988,3.767-7.988,5.136,0,3.195,3.081,4.45,6.961,5.82l5.592,2.054Z" fill="#00629b"/>
        <path d="M1013.628,97.515c-9.244-.114-11.526,0-19.743.343l-.685-.799c.343-9.358.685-16.319.685-28.759,0-16.205-.342-20.199-1.255-28.872l.685-.685,19.629-3.424.799.913c-.114,9.7-.343,19.515-.343,29.215,0,15.748.457,22.481,1.027,31.269l-.799.799ZM1012.03,25.162c-8.103,1.027-10.271,1.256-18.031,2.625l-.799-.685c.114-2.168.114-4.45.114-6.619,0-2.738-.114-5.135-.342-9.243l.685-.799,18.602-2.283.685.686-.343,15.52-.57.799Z" fill="#00629b"/>
        <path d="M1083.012,97.515c-8.559,0-10.727,0-18.602.343l-.57-.685.229-4.451c-2.739,2.396-6.962,6.163-15.064,6.163-3.766,0-9.928-.913-14.949-5.021-6.733-5.592-9.13-14.493-9.13-23.395,0-11.755,3.31-21.227,11.298-27.39,8.673-6.847,19.4-6.619,27.96-6.391.113-13.01,0-15.862-.686-26.59l.571-.685,18.83-2.968.799.686c-.457,15.063-.913,27.503-.913,57.631,0,14.949.342,21.797.799,32.067l-.571.685ZM1060.302,50.041c-12.781,0-15.292,9.814-15.292,18.602,0,2.282,0,16.434,11.07,16.434,3.195,0,5.478-1.37,7.76-2.739.343-13.809.456-16.775.343-31.954-1.598-.228-2.625-.342-3.881-.342Z" fill="#00629b"/>
        <path d="M1147.831,71.952c0,10.728,0,13.58.799,24.764l-.57.799c-7.418-.114-9.929,0-18.146.343l-.685-.799v-4.223c-2.396,1.94-7.304,6.049-15.862,6.049-11.185,0-19.972-7.875-19.972-20.086,0-5.135,2.169-11.64,8.56-15.634,6.847-4.223,13.237-5.479,26.932-7.304,0-1.712-.342-3.767-1.483-4.907-1.483-1.484-3.195-2.169-7.418-2.169-7.646,0-15.063,2.968-19.058,4.565l-.913-.457.57-12.438.685-.913c6.505-1.94,12.554-3.767,22.368-3.767,14.607,0,19.172,4.565,21.454,8.217,2.968,4.793,2.968,9.244,2.854,19.515l-.114,8.445ZM1129.115,67.844c-7.76,1.027-16.775,2.282-16.775,9.814,0,4.793,3.424,6.961,7.532,6.961,3.766,0,6.847-1.598,9.243-2.967v-13.809Z" fill="#00629b"/>
        <path d="M1217.217,97.515c-8.559,0-10.727,0-18.602.343l-.57-.685.229-4.451c-2.739,2.396-6.962,6.163-15.064,6.163-3.766,0-9.928-.913-14.949-5.021-6.733-5.592-9.13-14.493-9.13-23.395,0-11.755,3.31-21.227,11.298-27.39,8.673-6.847,19.4-6.619,27.96-6.391.113-13.01,0-15.862-.686-26.59l.571-.685,18.83-2.968.799.686c-.457,15.063-.913,27.503-.913,57.631,0,14.949.342,21.797.799,32.067l-.571.685ZM1194.507,50.041c-12.781,0-15.292,9.814-15.292,18.602,0,2.282,0,16.434,11.07,16.434,3.195,0,5.478-1.37,7.76-2.739.343-13.809.456-16.775.343-31.954-1.598-.228-2.625-.342-3.881-.342Z" fill="#00629b"/>
        <path d="M1298.24,31.554c-.229,7.304-.343,10.841-.343,17.117,0,16.092.229,32.068.799,48.045l-.685.685c-9.472,0-11.754.114-20.199.457l-.685-.685c.913-28.302.913-35.492.799-65.392l-18.602.457-.57-.685.799-14.037.799-.685h56.489l.57.342-.799,14.266-.685.57-17.688-.456Z" fill="#00629b"/>
        <path d="M1376.755,80.968l-.799,12.896-.685.913c-6.049,2.396-10.157,4.108-19.629,4.108-8.217,0-23.737-1.37-30.355-16.776-1.826-3.994-2.739-9.586-2.739-14.949,0-19.743,11.868-31.498,29.785-31.498,2.625,0,5.25.229,8.103,1.027,3.88.913,12.668,3.652,16.662,17.118,1.598,5.706,1.712,11.412,1.825,17.004l-.685.799-36.86.685c.456,2.283.799,4.565,2.511,6.962,2.738,4.108,7.418,6.276,14.265,6.276,8.331,0,13.466-2.625,17.803-4.907l.799.343ZM1360.435,59.741c0-2.625-.114-5.364-1.712-7.874-1.255-2.055-3.537-3.995-7.304-3.995-1.598,0-3.195.343-4.564,1.256-4.337,2.739-5.136,7.532-5.478,11.069l19.058-.456ZM1368.31,10.213c-3.652,5.592-8.788,13.466-12.325,19.286l-.799.457h-12.325l-.457-.686c3.424-7.874,4.337-10.156,6.962-19.058l.57-.57,18.031-.229.343.799Z" fill="#00629b"/>
        <path d="M1435.526,81.652l-.456,13.694-.685.685c-4.793,1.369-8.673,2.511-14.722,2.511-25.677,0-32.524-17.803-32.524-30.927,0-11.641,5.25-31.954,32.068-31.954,6.618,0,10.955,1.37,15.977,2.968l.57.685c-.913,6.049-1.027,7.646-1.483,13.694l-1.142.343c-3.423-2.283-6.162-4.108-11.184-4.108-11.069,0-14.722,9.586-14.722,17.917,0,6.847,2.625,17.574,15.521,17.574,5.82,0,8.787-1.826,11.869-3.651l.912.57Z" fill="#00629b"/>
        <path d="M1500.347,97.4c-9.13,0-11.07.114-18.602.343l-.686-.685c0-3.88.114-7.874.114-11.755,0-4.336-.114-19.971-.342-23.736-.343-4.108-.913-10.842-7.189-10.842-3.652,0-6.392,1.94-8.788,3.538.114,20.427.229,24.878.913,42.452l-.685.685c-9.13,0-10.842,0-19.058.343l-.686-.685c.114-7.304.229-14.607.229-21.911,0-18.602-.685-25.791-1.598-35.72l.685-.799c8.56-1.142,10.499-1.483,19.286-3.31l1.142.799-.229,6.276c5.25-3.081,11.298-6.733,18.26-6.733,4.108,0,10.613.913,14.15,6.848,2.854,4.679,2.968,9.929,3.082,20.884v8.901c.228,11.185.228,14.38.799,24.422l-.799.685Z" fill="#00629b"/>
        <path d="M1534.581,97.515c-9.244-.114-11.526,0-19.743.343l-.685-.799c.343-9.358.685-16.319.685-28.759,0-16.205-.342-20.199-1.255-28.872l.685-.685,19.629-3.424.799.913c-.114,9.7-.343,19.515-.343,29.215,0,15.748.457,22.481,1.027,31.269l-.799.799ZM1532.983,25.162c-8.103,1.027-10.271,1.256-18.031,2.625l-.799-.685c.114-2.168.114-4.45.114-6.619,0-2.738-.114-5.135-.342-9.243l.685-.799,18.602-2.283.685.686-.343,15.52-.57.799Z" fill="#00629b"/>
        <path d="M1594.15,81.652l-.456,13.694-.685.685c-4.793,1.369-8.673,2.511-14.722,2.511-25.677,0-32.524-17.803-32.524-30.927,0-11.641,5.25-31.954,32.068-31.954,6.618,0,10.955,1.37,15.977,2.968l.57.685c-.913,6.049-1.027,7.646-1.483,13.694l-1.142.343c-3.423-2.283-6.162-4.108-11.184-4.108-11.069,0-14.722,9.586-14.722,17.917,0,6.847,2.625,17.574,15.521,17.574,5.82,0,8.787-1.826,11.869-3.651l.912.57Z" fill="#00629b"/>
        <path d="M1654.519,71.952c0,10.728,0,13.58.799,24.764l-.57.799c-7.418-.114-9.929,0-18.146.343l-.685-.799v-4.223c-2.396,1.94-7.304,6.049-15.862,6.049-11.185,0-19.972-7.875-19.972-20.086,0-5.135,2.169-11.64,8.56-15.634,6.847-4.223,13.237-5.479,26.932-7.304,0-1.712-.342-3.767-1.483-4.907-1.483-1.484-3.195-2.169-7.418-2.169-7.646,0-15.063,2.968-19.058,4.565l-.913-.457.57-12.438.686-.913c6.504-1.94,12.553-3.767,22.367-3.767,14.607,0,19.172,4.565,21.455,8.217,2.967,4.793,2.967,9.244,2.853,19.515l-.114,8.445ZM1635.804,67.844c-7.76,1.027-16.775,2.282-16.775,9.814,0,4.793,3.424,6.961,7.532,6.961,3.766,0,6.847-1.598,9.243-2.967v-13.809Z" fill="#00629b"/>
        <path d="M1757.797,97.515c-8.559,0-10.727,0-18.602.343l-.57-.685.229-4.451c-2.739,2.396-6.962,6.163-15.064,6.163-3.766,0-9.928-.913-14.949-5.021-6.733-5.592-9.13-14.493-9.13-23.395,0-11.755,3.31-21.227,11.298-27.39,8.673-6.847,19.4-6.619,27.96-6.391.113-13.01,0-15.862-.686-26.59l.571-.685,18.83-2.968.799.686c-.457,15.063-.913,27.503-.913,57.631,0,14.949.342,21.797.799,32.067l-.571.685ZM1735.087,50.041c-12.781,0-15.292,9.814-15.292,18.602,0,2.282,0,16.434,11.07,16.434,3.195,0,5.478-1.37,7.76-2.739.343-13.809.456-16.775.343-31.954-1.598-.228-2.625-.342-3.881-.342Z" fill="#00629b"/>
        <path d="M1823.416,80.968l-.799,12.896-.685.913c-6.049,2.396-10.157,4.108-19.629,4.108-8.217,0-23.737-1.37-30.355-16.776-1.826-3.994-2.739-9.586-2.739-14.949,0-19.743,11.868-31.498,29.785-31.498,2.625,0,5.25.229,8.103,1.027,3.88.913,12.668,3.652,16.662,17.118,1.598,5.706,1.712,11.412,1.825,17.004l-.685.799-36.86.685c.456,2.283.799,4.565,2.511,6.962,2.738,4.108,7.417,6.276,14.265,6.276,8.331,0,13.466-2.625,17.803-4.907l.799.343ZM1807.097,59.741c0-2.625-.114-5.364-1.712-7.874-1.255-2.055-3.537-3.995-7.304-3.995-1.598,0-3.195.343-4.564,1.256-4.337,2.739-5.136,7.532-5.478,11.069l19.058-.456Z" fill="#00629b"/>
        <path d="M1856.055,97.515c-8.331-.114-11.412,0-19.059.343l-.685-.799c.456-11.298.685-18.146.685-30.471,0-6.732,0-13.466-.114-20.199-.228-18.487-.342-22.253-1.483-36.176l.457-.685,19.514-3.082.8.799c-.457,12.325-.571,17.461-.571,28.303,0,36.062.571,48.044,1.142,61.168l-.685.799Z" fill="#00629b"/>
        <path d="M659.63,105.96c-.114,12.781-.228,25.449-.228,38.23,0,13.694.114,24.878.228,41.426l-.57.57c-6.048,0-8.103,0-15.064.343l-.799-.57-10.157-14.836-11.412-16.776c-7.76-11.298-9.586-14.265-14.95-23.166l.685,15.292.342,14.037,1.142,24.992-.571.685c-6.619,0-9.016,0-16.662.343l-.571-.685c.114-11.07.343-22.254.343-33.438,0-15.292-.343-28.416-.913-46.104l.57-.685c8.331.113,9.814.113,18.83-.343l.799.57c2.853,4.565,4.565,7.076,13.124,20.086l10.385,15.178c5.82,8.673,6.391,9.586,9.7,15.178l-.457-18.83-.457-15.748-.799-15.406.571-.685c7.076.113,9.016,0,16.205-.343l.685.685Z" fill="#00629b"/>
        <path d="M701.511,187.557c-16.319,0-21.911-6.163-24.878-10.613-4.223-6.163-5.364-13.581-5.364-20.885,0-20.998,11.184-31.611,31.041-31.611,2.967,0,8.901.229,13.922,2.169,15.977,6.276,15.977,24.764,15.977,29.215,0,17.118-6.505,31.726-30.698,31.726ZM709.157,139.739c-1.484-1.825-4.108-3.537-7.304-3.537-3.652,0-6.619,2.054-8.331,5.136-2.282,3.994-2.282,11.298-2.282,14.607,0,11.069,2.168,14.949,4.108,16.89,1.369,1.255,3.423,2.624,6.391,2.624,9.472,0,10.728-10.385,10.728-19.742,0-6.163-.571-12.668-3.31-15.978Z" fill="#00629b"/>
        <path d="M775.574,144.305c-1.598-.913-2.739-1.598-4.679-1.598-7.76,0-7.76,7.532-7.76,12.667,0,7.875.685,20.771,1.141,30.014l-.57.799c-9.13-.114-10.956,0-19.401.343l-.685-.685c.229-9.473.342-18.83.342-28.188,0-15.862-.342-20.998-1.027-29.557l.685-.685c8.331-1.256,10.499-1.598,18.944-3.424l.913.913-.342,10.499c3.652-8.445,8.901-11.07,13.581-11.07.799,0,1.598.114,2.396.114l.685.799-3.195,18.602-1.027.457Z" fill="#00629b"/>
        <path d="M822.249,173.52l-1.141,11.754-.799.799c-3.994.686-7.532,1.37-11.983,1.37-17.803,0-18.031-11.298-18.031-21.797,0-2.968.114-5.82.228-8.674l.342-18.145-7.189.228-.685-.685,1.027-12.211.685-.57,6.162.229-.114-14.266.457-.799c8.103-2.054,10.157-2.625,17.917-4.907l.799.685-.342,19.173h11.412l.685.685-1.142,12.211-.685.685-10.271-.456-.228,16.091c-.114,4.564-.114,10.841.228,13.809.229,1.712.685,5.363,6.505,5.363,1.94,0,3.31-.456,5.25-1.027l.913.457Z" fill="#00629b"/>
        <path d="M879.537,169.64l-.799,12.896-.685.913c-6.048,2.396-10.157,4.108-19.629,4.108-8.216,0-23.737-1.37-30.356-16.776-1.826-3.994-2.739-9.586-2.739-14.949,0-19.743,11.869-31.498,29.785-31.498,2.625,0,5.25.229,8.103,1.027,3.88.913,12.667,3.652,16.661,17.118,1.598,5.706,1.712,11.412,1.826,17.004l-.685.799-36.861.685c.457,2.283.799,4.565,2.511,6.962,2.739,4.108,7.418,6.276,14.265,6.276,8.331,0,13.466-2.625,17.803-4.907l.799.343ZM863.219,148.413c0-2.625-.114-5.364-1.712-7.874-1.255-2.055-3.538-3.995-7.304-3.995-1.598,0-3.195.343-4.565,1.256-4.336,2.739-5.135,7.532-5.478,11.069l19.059-.456Z" fill="#00629b"/>
        <path d="M600.412,214.327c-.258,5.777-.431,12.589-.431,27.42,0,16.556.173,23.627.69,32.508l-.517.604c-3.794.087-5.001.087-9.571.259l-.518-.604c.172-5.26.345-9.83.345-20.953,0-13.021,0-25.954-.604-38.889l.431-.689c3.794,0,5.174,0,9.571-.259l.604.604Z" fill="#00629b"/>
        <path d="M652.838,267.788c-.259,2.932-.259,3.535-.431,6.467l-.604.604c-16.814,0-19.487.087-35.871.259l-.431-.604c.259-6.812.518-11.468.518-27.248,0-14.486,0-22.764-.604-32.68l.518-.604c16.987-.087,20.35-.087,36.215-.259l.518.604c-.259,2.587-.431,3.621-.604,6.726l-.518.604c-11.123-.345-14.831-.345-25.782-.431-.259,7.933-.259,10.434-.259,18.366,10.606.086,13.882,0,24.402-.173l.431.604c-.345,3.019-.345,3.881-.431,6.64l-.518.604c-10.002-.259-12.158-.259-23.885-.259-.172,10.003-.086,12.417,0,20.608,13.02,0,15.693,0,26.816-.431l.518.604Z" fill="#00629b"/>
        <path d="M700.006,267.788c-.259,2.932-.259,3.535-.431,6.467l-.604.604c-16.814,0-19.487.087-35.871.259l-.431-.604c.259-6.812.517-11.468.517-27.248,0-14.486,0-22.764-.604-32.68l.518-.604c16.987-.087,20.35-.087,36.215-.259l.518.604c-.259,2.587-.431,3.621-.604,6.726l-.518.604c-11.123-.345-14.831-.345-25.782-.431-.259,7.933-.259,10.434-.259,18.366,10.606.086,13.882,0,24.402-.173l.431.604c-.345,3.019-.345,3.881-.431,6.64l-.518.604c-10.002-.259-12.158-.259-23.885-.259-.172,10.003-.086,12.417,0,20.608,13.02,0,15.693,0,26.816-.431l.518.604Z" fill="#00629b"/>
        <path d="M747.173,267.788c-.259,2.932-.259,3.535-.431,6.467l-.604.604c-16.814,0-19.487.087-35.871.259l-.431-.604c.259-6.812.517-11.468.517-27.248,0-14.486,0-22.764-.604-32.68l.518-.604c16.987-.087,20.35-.087,36.215-.259l.518.604c-.259,2.587-.431,3.621-.604,6.726l-.518.604c-11.123-.345-14.831-.345-25.782-.431-.259,7.933-.259,10.434-.259,18.366,10.606.086,13.882,0,24.402-.173l.431.604c-.345,3.019-.345,3.881-.431,6.64l-.518.604c-10.002-.259-12.158-.259-23.885-.259-.172,10.003-.086,12.417,0,20.608,13.02,0,15.693,0,26.816-.431l.518.604Z" fill="#00629b"/>
        <path d="M804.86,240.368c6.294,2.759,14.659,6.38,14.659,17.417,0,9.658-7.157,18.367-22.161,18.367-9.14,0-15.003-2.76-17.073-3.794l-.345-.604c.345-3.019.431-4.656.689-7.934l.862-.345c2.156,1.466,7.157,5.088,15.176,5.088,8.881,0,12.589-4.57,12.589-9.744,0-6.036-5.001-8.364-10.606-10.52l-4.311-1.897c-6.122-2.846-14.314-6.553-14.314-17.072,0-3.19.862-6.468,2.673-9.055,3.966-5.69,11.123-7.588,18.107-7.588,6.812,0,10.951,1.294,15.521,2.76l.431.689c-.345,3.276-.431,4.484-.69,7.588l-.689.345c-3.708-1.896-7.761-3.966-14.228-3.966-7.157,0-11.641,3.362-11.641,8.45,0,3.88,2.587,5.69,4.398,6.812,1.121.69,1.466.862,6.639,3.104l4.312,1.897Z" fill="#00629b"/>
        <path d="M849.182,268.047c-.259,2.846-.259,3.449-.345,5.949l-.431.518c-1.811.432-3.276.776-6.467.776-2.07,0-7.502,0-10.175-4.484-1.552-2.5-1.552-4.569-1.552-14.744l.172-18.971c-3.018,0-3.104.087-6.208.173l-.345-.518c.172-2.759.172-3.449.172-6.208l.518-.518c1.897,0,3.018.086,5.863,0-.086-1.811-.086-3.708-.086-5.519-.086-1.639-.173-3.276-.259-4.915l.431-.604c3.88-.948,4.829-1.207,8.795-2.414l.604.431c-.258,5.691-.345,6.812-.345,13.106,3.622-.086,4.656-.086,9.571-.259l.431.518c-.172,2.242-.259,3.19-.259,6.122l-.431.518c-4.312-.086-4.829-.173-9.399-.173l-.172,16.039c.086,1.034.086,5.949.086,7.156,0,6.295.776,8.278,5.087,8.278,1.811,0,3.19-.432,4.139-.776l.604.518Z" fill="#00629b"/>
        <path d="M894.968,230.279c-.172,6.553-.259,12.675-.259,19.659,0,10.606.259,16.987.431,20.695,0,1.207.086,2.414.172,3.621l-.345.518c-4.139.086-4.829.173-8.795.345l-.517-.518.086-3.621c-1.897,1.38-6.467,4.915-13.538,4.915-3.363,0-7.07-.776-9.83-2.932-5.519-4.484-5.519-11.813-5.605-18.539v-5.347c-.172-12.33-.172-13.71-.431-18.366l.431-.604c4.053-.086,4.829-.086,8.881-.431l.518.604-.345,18.884c0,2.328-.086,4.053,0,8.191.086,3.621.259,11.382,8.968,11.382,5.087,0,8.709-2.846,10.778-4.483.086-4.656.086-8.623.086-13.624,0-11.985-.086-14.4-.604-20.005l.517-.604c3.967-.086,4.915-.086,8.881-.345l.518.604Z" fill="#00629b"/>
        <path d="M936.444,207.86c4.397-.776,5.26-.949,9.14-1.812l.604.518c-.604,11.985-.689,33.37-.689,41.993,0,13.365.345,19.746.689,25.695l-.431.604c-3.794,0-4.829.087-8.795.259l-.604-.518.173-3.19c-2.069,1.553-5.605,4.312-11.899,4.312-11.468,0-19.401-9.054-19.401-22.16,0-9.398,3.966-15.349,7.588-18.539,6.294-5.69,14.486-5.949,18.97-5.949,1.811,0,2.673,0,5.001.172.086-10.692-.345-15.865-.776-20.867l.432-.517ZM936.53,236.229c-1.466-.086-2.5-.259-4.312-.259-2.673,0-8.364.173-12.503,4.053-1.897,1.812-5.001,5.864-5.001,13.538,0,4.915,1.379,8.45,3.19,10.605,1.552,1.812,4.397,3.881,8.881,3.881,5.26,0,8.451-2.76,9.658-3.794.172-11.296.172-13.883.086-28.024Z" fill="#00629b"/>
        <path d="M994.045,264.339c-.432,3.449-.518,4.312-.689,7.674l-.518.604c-1.466.775-6.122,3.276-13.797,3.276-14.141,0-23.022-8.105-23.022-23.109,0-16.038,9.657-23.885,20.953-23.885,6.812,0,11.555,2.846,14.142,5.95,4.915,5.863,4.742,14.399,4.656,18.193l-.604.518c-13.451-.086-15.779-.086-29.921,0,.086,3.018.345,7.243,3.276,10.778,3.535,4.226,8.45,4.656,11.123,4.656,2.501,0,5.088-.431,7.502-1.293,3.19-1.294,5.088-2.846,6.209-3.794l.689.431ZM986.025,241.834c-1.725-4.743-5.519-6.727-9.398-6.727-4.829,0-10.52,3.277-11.382,11.899,10.434.087,13.71,0,21.643-.086-.086-1.207-.172-3.104-.862-5.087Z" fill="#00629b"/>
        <path d="M1043.626,274.772c-4.139.086-4.656.086-8.622.345l-.604-.604c0-.948.086-1.896.086-2.846.086-4.225.086-8.45.086-12.675,0-13.279-.086-14.142-.518-15.952-1.638-6.554-6.553-6.554-7.76-6.554-5.174,0-9.141,3.019-11.469,4.829-.086,15.003.086,22.85.69,32.938l-.518.518c-4.226.086-4.915.086-9.054.345l-.432-.604c.086-4.829.259-9.485.259-15.866,0-13.796-.604-21.125-1.035-26.902l.518-.604c4.312-.776,5.088-.949,9.141-1.725l.604.604-.087,4.483c2.242-1.552,7.589-5.346,15.177-5.346,2.155,0,4.828.345,7.156,1.639,2.242,1.293,4.053,3.276,5.002,5.604,1.12,2.587,1.207,5.174,1.293,10.52v10.089c.259,10.089.345,13.969.604,17.245l-.518.518Z" fill="#00629b"/>
        <path d="M1075.877,268.047c-.259,2.846-.259,3.449-.345,5.949l-.432.518c-1.811.432-3.276.776-6.467.776-2.069,0-7.502,0-10.175-4.484-1.553-2.5-1.553-4.569-1.553-14.744l.173-18.971c-3.018,0-3.104.087-6.208.173l-.346-.518c.173-2.759.173-3.449.173-6.208l.518-.518c1.896,0,3.018.086,5.863,0-.086-1.811-.086-3.708-.086-5.519-.087-1.639-.173-3.276-.259-4.915l.431-.604c3.881-.948,4.829-1.207,8.796-2.414l.604.431c-.259,5.691-.345,6.812-.345,13.106,3.621-.086,4.656-.086,9.57-.259l.432.518c-.173,2.242-.259,3.19-.259,6.122l-.431.518c-4.312-.086-4.829-.173-9.399-.173l-.172,16.039c.086,1.034.086,5.949.086,7.156,0,6.295.776,8.278,5.087,8.278,1.812,0,3.19-.432,4.14-.776l.604.518Z" fill="#00629b"/>
        <path d="M1110.194,275.117l-.431-.604c.172-4.139.259-8.105.259-15.952,0-3.708.086-21.729.086-25.782,0-9.054-.259-13.71-.604-18.193l.431-.604,11.555-.173c1.725-.086,4.397-.086,6.726-.086,5.088,0,10.521.172,14.831,2.673,3.19,1.811,6.812,5.433,6.812,11.813,0,3.018-.862,11.641-12.848,14.572,1.982.086,4.828.172,7.933,1.552,7.416,3.276,8.191,9.83,8.191,13.021,0,7.933-4.915,13.538-11.812,16.038-4.57,1.639-9.141,1.639-15.952,1.639l-15.177.086ZM1119.507,240.022c7.761.087,13.711,0,17.332-2.845,2.155-1.812,3.535-4.657,3.535-7.502,0-2.328-.948-4.57-2.414-6.122-3.018-2.932-8.364-2.932-10.348-2.932-2.759,0-5.432.086-8.105.258v19.143ZM1119.507,247.266c0,9.83,0,11.296.346,20.695h1.638c6.467,0,11.728.086,15.09-1.294,4.139-1.552,6.467-5.174,6.467-9.485,0-10.088-11.123-10.175-15.262-10.175-.776,0-1.552,0-6.208.173l-2.07.086Z" fill="#00629b"/>
        <path d="M1183.576,238.988c-.862-.345-1.983-.776-3.449-.776-1.639,0-2.846.604-3.621,1.121-3.536,2.501-3.536,6.295-3.536,15.262,0,9.744.259,14.832.604,19.66l-.432.604c-4.053,0-5.001.087-9.14.259l-.432-.518c.086-6.553.173-12.503.173-20.521,0-13.797-.259-17.332-.776-22.333l.518-.604c3.276-.604,5.346-1.035,8.968-1.725l.517.518-.431,7.329c1.035-2.76,3.19-8.278,10.52-8.278,1.121,0,1.725.087,2.414.259l.346.518c-.862,4.139-1.035,5.001-1.639,8.795l-.604.432Z" fill="#00629b"/>
        <path d="M1225.568,257.096c0,10.692.086,11.641.518,17.245l-.432.432c-4.052.086-4.742.173-8.709.345l-.345-.518.087-3.104c-1.639,1.293-5.519,4.397-12.072,4.397-8.623,0-14.658-5.863-14.658-14.4,0-11.555,9.657-15.262,25.178-17.073l1.466-.172c0-2.328,0-3.967-.775-5.347-.862-1.552-2.846-3.19-7.157-3.19-5.604,0-9.485,1.725-13.106,3.277l-.69-.432c.173-3.966.173-4.483.259-6.294l.518-.518c4.829-1.725,9.83-2.846,14.918-2.846,6.38,0,12.589,2.155,14.399,8.882.604,2.414.604,7.156.604,10.778v8.536ZM1215.911,250.801c-8.709,1.294-16.814,2.501-16.814,10.175,0,.432,0,7.847,8.191,7.847,5.347,0,8.45-2.932,9.399-3.794v-14.399l-.776.172Z" fill="#00629b"/>
        <path d="M1276.185,274.772c-4.139.086-4.656.086-8.622.345l-.604-.604c0-.948.086-1.896.086-2.846.086-4.225.086-8.45.086-12.675,0-13.279-.086-14.142-.518-15.952-1.638-6.554-6.553-6.554-7.76-6.554-5.174,0-9.141,3.019-11.469,4.829-.086,15.003.086,22.85.69,32.938l-.518.518c-4.226.086-4.915.086-9.054.345l-.432-.604c.086-4.829.259-9.485.259-15.866,0-13.796-.604-21.125-1.035-26.902l.518-.604c4.312-.776,5.088-.949,9.141-1.725l.604.604-.087,4.483c2.242-1.552,7.589-5.346,15.177-5.346,2.155,0,4.828.345,7.156,1.639,2.242,1.293,4.053,3.276,5.002,5.604,1.12,2.587,1.207,5.174,1.293,10.52v10.089c.259,10.089.345,13.969.604,17.245l-.518.518Z" fill="#00629b"/>
        <path d="M1321.11,264.598c-.345,3.708-.431,4.139-.689,7.674l-.604.604c-2.501,1.208-5.863,2.933-11.899,2.933-13.021,0-21.471-9.399-21.471-22.851,0-13.71,8.278-24.058,21.644-24.058,5.604,0,9.571,1.811,11.812,2.76l.345.604c-.345,3.104-.431,4.225-.604,6.812l-.689.345c-2.846-2.069-6.122-3.362-9.571-3.362-7.157,0-13.451,5.519-13.451,16.556,0,11.727,6.64,15.952,13.365,15.952,5.863,0,9.484-3.019,11.123-4.312l.689.345Z" fill="#00629b"/>
        <path d="M1366.811,274.772c-4.139.086-4.656.086-8.622.345l-.604-.604.086-2.846c.086-4.483.086-9.054.086-13.537l-.086-9.227c0-1.983,0-3.967-.432-5.863-.948-3.967-3.362-6.554-7.76-6.554-4.915,0-8.709,2.76-11.555,4.829-.086,15.003.086,22.85.604,32.938l-.432.518c-3.966.086-5.001.086-9.226.345l-.432-.604c.173-6.122.432-13.883.432-30.438,0-7.243-.087-14.486-.173-21.729-.173-7.588-.431-10.088-.689-13.969l.431-.517c4.139-.69,5.519-.949,9.399-1.812l.517.604c-.517,9.227-.517,18.539-.517,27.852,2.759-1.811,8.191-5.346,15.435-5.346,1.983,0,3.966.259,5.777,1.034,3.88,1.553,6.208,4.657,7.07,8.192.431,1.725.431,2.759.604,8.536v10.089l.086,4.053c.173,7.243.173,8.45.518,13.192l-.518.518Z" fill="#00629b"/>
      </g>
      <g>
        <g>
          <path d="M0,195.992l57.437-.031.007,12.064-43.473.023.011,20.896,40.231-.022.006,11.397-40.231.022.013,23.353,44.249-.024.007,12.063-58.212.031-.043-79.774Z" fill="#6f6f6e"/>
          <path d="M124.309,221.287c-2.352-9.158-8.283-15.859-19.9-15.852-17.096.009-24.24,15.091-24.232,30.396.008,15.306,7.168,30.391,24.265,30.382,12.402-.007,19.209-9.279,20.318-20.908l13.636-.007c-1.104,19.107-14.624,32.302-33.947,32.313-23.909.013-38.221-18.975-38.234-41.771-.012-22.785,14.279-41.789,38.189-41.802,17.992.1,32.179,10.038,33.869,27.243l-13.963.008Z" fill="#6f6f6e"/>
          <path d="M150.257,195.911l13.964-.008.025,46.476c.006,10.731.678,23.134,18.78,23.124,18.1-.01,18.771-12.413,18.765-23.144l-.025-46.476,13.963-.008.028,51.061c.011,20.448-13.051,30.62-32.724,30.631-19.663.011-32.736-10.147-32.747-30.595l-.028-51.061Z" fill="#6f6f6e"/>
          <path d="M253.197,195.856l14.868-.008,30.766,79.757-14.968.008-7.501-21.111-31.846.017-7.479,21.119-14.41.008,30.569-79.791ZM248.31,243.895l24.356-.013-11.972-34.297h-.339s-12.045,34.31-12.045,34.31Z" fill="#6f6f6e"/>
          <path d="M306.431,195.827l33.069-.018c24.585-.013,35.206,17.854,35.218,39.863.012,22.01-10.59,39.898-35.175,39.911l-33.069.018-.043-79.774ZM320.431,264.195l13.745-.007c21.901-.012,26.577-12.525,26.568-28.509-.009-15.973-4.698-28.48-26.599-28.469l-13.745.007.031,56.977Z" fill="#6f6f6e"/>
          <path d="M459.34,235.626c.012,22.796-14.279,41.8-38.188,41.812-23.91.013-38.222-18.975-38.234-41.771-.012-22.785,14.279-41.789,38.189-41.802,23.909-.013,38.221,18.975,38.234,41.761ZM396.881,235.66c.008,15.306,7.167,30.391,24.265,30.382,17.096-.009,24.239-15.101,24.23-30.408-.008-15.306-7.167-30.379-24.263-30.37s-24.24,15.091-24.232,30.396Z" fill="#6f6f6e"/>
          <path d="M472.102,195.738l38.102-.021c17.436-.009,26.37,8.033,26.378,21.547.008,15.307-10.601,19.221-13.166,20.118v.229c4.804.663,11.837,4.23,11.844,16.861.005,9.269,1.353,17.761,4.378,21.003l-14.979.008c-2.12-3.459-2.123-7.815-2.125-11.735-.008-14.629-3.036-21.113-15.885-21.106l-20.558.011.018,32.851-13.963.008-.043-79.774ZM486.085,232.042l22.906-.012c8.831-.005,13.633-4.365,13.628-12.749-.005-10.163-6.6-12.168-13.861-12.164l-22.687.012.013,24.914Z" fill="#6f6f6e"/>
        </g>
        <g>
          <polygon points="539.534 15.238 0 15.529 .018 48.228 228.911 48.105 228.973 162.551 310.72 162.507 310.658 48.061 539.551 47.937 539.534 15.238" fill="#d20a11"/>
          <polygon points="327.017 64.401 412.924 64.355 450.45 101.253 450.43 64.335 539.56 64.287 539.613 162.384 452.511 162.431 417.375 122.502 417.397 162.45 327.07 162.499 327.017 64.401" fill="#d20a11"/>
          <path d="M122.511,64.512s.438,34.378.243,49.119h-.079c.005,9.03-7.311,16.354-16.341,16.359-1.678,0-3.264-.325-4.787-.793-4.189-1.84-7.504-5.23-9.489-7.725-1.284-2.333-2.08-4.972-2.082-7.823l-.026-49.119L.026,64.578s.041,76.601.044,81.548c0,.023.013.049.013.071,0,.044-.013.084-.013.129.005,9.029,7.328,16.345,16.358,16.34.463,0,.898-.099,1.352-.137,15.147.046,164.206.477,177.607-.049.299.016.582.089.885.089,7.555-.004,13.847-5.158,15.719-12.122.379-.389.624-.645.624-.645l-.046-85.339-90.059.049Z" fill="#d20a11"/>
        </g>
      </g>
    </g>
  </g>
</svg>